<svg width="17" height="16" viewBox="0 0 17 16" fill="none" xmlns="http://www.w3.org/2000/svg">
<path d="M4.08143 16H0.764286V5.31762H4.08143V16ZM2.42107 3.86044C1.36036 3.86044 0.5 2.98185 0.5 1.92111C0.5 1.4116 0.702398 0.92296 1.06267 0.562681C1.42294 0.202403 1.91157 0 2.42107 0C2.93057 0 3.4192 0.202403 3.77947 0.562681C4.13974 0.92296 4.34214 1.4116 4.34214 1.92111C4.34214 2.98185 3.48143 3.86044 2.42107 3.86044ZM16.4964 16H13.1864V10.7999C13.1864 9.56057 13.1614 7.97125 11.4618 7.97125C9.73714 7.97125 9.47286 9.31771 9.47286 10.7106V16H6.15929V5.31762H9.34071V6.77479H9.38714C9.83 5.93549 10.9118 5.04976 12.5257 5.04976C15.8829 5.04976 16.5 7.26052 16.5 10.132V16H16.4964Z" fill="#031428"/>
</svg>
