<svg width="21" height="17" viewBox="0 0 21 17" fill="none" xmlns="http://www.w3.org/2000/svg">
<path d="M18.4442 4.05877C18.4569 4.23377 18.4569 4.4088 18.4569 4.58379C18.4569 9.92126 14.3326 16.0713 6.79444 16.0713C4.47209 16.0713 2.31473 15.4088 0.5 14.2588C0.829962 14.2963 1.14719 14.3088 1.48985 14.3088C3.40607 14.3088 5.17006 13.6713 6.5787 12.5838C4.77666 12.5463 3.2665 11.3838 2.74618 9.78379C3.00001 9.82126 3.2538 9.84627 3.52032 9.84627C3.88833 9.84627 4.25638 9.79625 4.599 9.7088C2.72083 9.33376 1.31215 7.70878 1.31215 5.74628V5.6963C1.85782 5.9963 2.49239 6.1838 3.16493 6.20877C2.06087 5.48376 1.33754 4.24627 1.33754 2.84626C1.33754 2.09627 1.54055 1.40877 1.8959 0.80877C3.91369 3.25877 6.9467 4.85874 10.3477 5.03377C10.2843 4.73377 10.2462 4.4213 10.2462 4.10879C10.2462 1.88377 12.0736 0.0712891 14.3452 0.0712891C15.5254 0.0712891 16.5914 0.558788 17.3401 1.34629C18.2665 1.1713 19.1548 0.83378 19.9416 0.371291C19.637 1.30881 18.9898 2.09631 18.1396 2.59628C18.9645 2.50882 19.764 2.28377 20.5 1.9713C19.9417 2.77127 19.2437 3.48374 18.4442 4.05877Z" fill="#031428"/>
</svg>
